<svg xmlns="http://www.w3.org/2000/svg" width="84.648" height="99" viewBox="0 0 84.648 99"><defs><style>.a{fill:#c2e3d4;}</style></defs><g transform="translate(-386.974 -94.134)"><path class="a" d="M387.155,575.072h5.106L386.974,582v.2h5.778v-.33h-5.266l5.288-6.929v-.2h-5.618Z" transform="translate(0 -389.177)"/><path class="a" d="M444.447,578.611h4.424v-.33h-4.424v-3.209h4.893v-.331h-5.256V582.2h5.309v-.331h-4.946Z" transform="translate(-46.246 -389.176)"/><path class="a" d="M503.958,581.585l-5.458-6.844h-.331V582.2h.352v-6.9l5.5,6.9h.288v-7.463h-.352Z" transform="translate(-90.042 -389.176)"/><path class="a" d="M592.323,577.818c-1.812-.373-2.313-.853-2.313-1.716v-.021c0-.831.81-1.567,2.036-1.567a3.659,3.659,0,0,1,2.335.832l.224-.288a3.935,3.935,0,0,0-2.537-.874,2.173,2.173,0,0,0-2.42,1.929v.021c0,1.077.714,1.652,2.537,2.015,1.8.373,2.3.842,2.3,1.717v.021c0,.938-.842,1.642-2.132,1.642a3.818,3.818,0,0,1-2.75-1.13l-.245.267a4.228,4.228,0,0,0,2.974,1.194c1.525,0,2.516-.853,2.516-2v-.021C594.849,578.788,594.177,578.191,592.323,577.818Z" transform="translate(-163.883 -388.724)"/><path class="a" d="M644.982,574.742h-.362V582.2h4.861v-.331h-4.5Z" transform="translate(-208.631 -389.176)"/><path class="a" d="M695.313,578.611h4.424v-.33h-4.424v-3.209h4.893v-.331H694.95V582.2h5.309v-.331h-4.946Z" transform="translate(-249.386 -389.176)"/><path class="a" d="M749.4,578.611h4.424v-.33H749.4v-3.209h4.893v-.331h-5.256V582.2h5.309v-.331H749.4Z" transform="translate(-293.182 -389.176)"/><path class="a" d="M805.729,574.741h-2.665V582.2h.362v-2.868h2.217c1.706,0,2.91-.821,2.91-2.313V577C808.554,575.583,807.477,574.741,805.729,574.741Zm2.462,2.292c0,1.237-.991,1.962-2.537,1.962h-2.228v-3.923H805.7c1.535,0,2.494.714,2.494,1.94Z" transform="translate(-336.933 -389.176)"/><path class="a" d="M510.642,254.9h36.1a.923.923,0,1,0,0-1.847H512.873l34.52-34.475a.924.924,0,0,0-1.305-1.307l-36.1,36.052a.924.924,0,0,0,.653,1.577Z" transform="translate(-99.394 -99.493)"/><path class="a" d="M510.889,218.849h23.962a.923.923,0,0,0,0-1.847H510.889a.923.923,0,0,0,0,1.847Z" transform="translate(-99.594 -99.493)"/><path class="a" d="M470.7,94.134H387.9a.923.923,0,0,0-.923.923v82.8a.923.923,0,0,0,.923.924h82.8a.924.924,0,0,0,.924-.924v-82.8A.924.924,0,0,0,470.7,94.134Zm-.923,82.8H388.821V95.981h80.954Z"/></g></svg>